<svg width="108" height="108" viewBox="0 0 108 108" fill="none" xmlns="http://www.w3.org/2000/svg">
<circle cx="53.8849" cy="53.8849" r="51.4356" stroke="url(#paint0_linear_16_149)" stroke-width="4.89862"/>
<circle cx="53.4837" cy="53.4844" r="44.1318" fill="#D6BAAD"/>
<path d="M44.0895 49.4857C41.5277 46.9239 40.2468 43.8443 40.2468 40.2469C40.2468 36.6494 41.5277 33.5698 44.0895 31.008C46.6513 28.4462 49.7309 27.1653 53.3283 27.1653C56.9258 27.1653 60.0054 28.4462 62.5672 31.008C65.129 33.5698 66.4099 36.6494 66.4099 40.2469C66.4099 43.8443 65.129 46.9239 62.5672 49.4857C60.0054 52.0475 56.9258 53.3284 53.3283 53.3284C49.7309 53.3284 46.6513 52.0475 44.0895 49.4857ZM27.1652 72.9508V70.3344C27.1652 68.4812 27.6427 66.7784 28.5977 65.2261C29.5526 63.6738 30.8193 62.4877 32.3978 61.6679C35.7772 59.9782 39.2112 58.7115 42.6996 57.8677C46.188 57.024 49.7309 56.601 53.3283 56.5988C56.9258 56.5966 60.4687 57.0196 63.9571 57.8677C67.4455 58.7158 70.8794 59.9826 74.2588 61.6679C75.8395 62.4855 77.1073 63.6716 78.0623 65.2261C79.0172 66.7806 79.4936 68.4834 79.4914 70.3344V72.9508C79.4914 74.7495 78.8515 76.2898 77.5717 77.5718C76.2919 78.8538 74.7516 79.4937 72.9507 79.4915H33.706C31.9073 79.4915 30.368 78.8516 29.0882 77.5718C27.8084 76.292 27.1674 74.7516 27.1652 72.9508Z" fill="#8D391D" fill-opacity="0.85"/>
<defs>
<linearGradient id="paint0_linear_16_149" x1="53.8849" y1="4.89862" x2="53.8849" y2="102.871" gradientUnits="userSpaceOnUse">
<stop stop-color="#7D1C0A"/>
<stop offset="1" stop-color="#FA6C2A"/>
</linearGradient>
</defs>
</svg>
